<svg width="261" height="100" viewBox="0 0 261 100" fill="none" xmlns="http://www.w3.org/2000/svg">
<g clip-path="url(#clip0)">
<path d="M67.1667 8.03737L21.7875 31.2707L3.75 22.3957L48.3292 0.383203C49.3292 -0.12513 50.5292 -0.12513 51.5792 0.383203L67.1667 8.03737Z" fill="black"/>
<path d="M96.2001 22.3958L50.0251 45.2708L32.7334 36.75L30.2334 35.4792L75.6626 12.25L78.1626 13.5167L96.2001 22.3958Z" fill="black"/>
<path d="M46.325 51.8625L46.275 100L2.05 76.9209C0.8 76.2626 0 74.9417 0 73.5209V28.9875L18.7417 38.2209V54.4542C18.7417 56.5334 20.4417 58.2584 22.4917 58.2584C24.5417 58.2584 26.2417 56.5334 26.2417 54.4542V41.9751L28.7417 43.1917L46.325 51.8625Z" fill="black"/>
<path d="M99.9499 29.0376L53.8249 51.8126L53.7749 99.9501L99.9999 75.8126L99.9499 29.0376Z" fill="black"/>
</g>
<path d="M129.19 7.42H132.82L140.8 28H137.77L135.7 22.51H126.16L124.15 28H121.21L129.19 7.42ZM134.77 20.02L132.37 13.6L130.99 9.88H130.84L129.49 13.54L127.09 20.02H134.77ZM143.02 12.22H145.03L145.33 14.35H145.54C146.62 12.69 148.2 11.86 150.28 11.86C152.32 11.86 153.68 12.69 154.36 14.35H154.54C155.08 13.55 155.78 12.94 156.64 12.52C157.52 12.08 158.45 11.86 159.43 11.86C162.53 11.86 164.08 13.45 164.08 16.63V28H161.44V17.11C161.44 15.97 161.19 15.18 160.69 14.74C160.19 14.28 159.5 14.05 158.62 14.05C157.56 14.05 156.67 14.47 155.95 15.31C155.23 16.15 154.87 17.27 154.87 18.67V28H152.23V17.11C152.23 15.97 151.99 15.18 151.51 14.74C151.03 14.28 150.35 14.05 149.47 14.05C148.79 14.05 148.16 14.24 147.58 14.62C147 14.98 146.53 15.51 146.17 16.21C145.83 16.91 145.66 17.73 145.66 18.67V28H143.02V12.22ZM174.7 28.36C172.16 28.36 170.27 27.69 169.03 26.35C167.79 25.01 167.17 22.93 167.17 20.11C167.17 17.29 167.79 15.21 169.03 13.87C170.27 12.53 172.16 11.86 174.7 11.86C176.98 11.86 178.68 12.47 179.8 13.69C180.94 14.89 181.51 16.83 181.51 19.51V20.83H169.9C170 22.65 170.43 24 171.19 24.88C171.97 25.74 173.14 26.17 174.7 26.17C175.96 26.17 176.98 25.88 177.76 25.3C178.54 24.72 178.93 23.83 178.93 22.63H181.51C181.51 24.47 180.87 25.89 179.59 26.89C178.33 27.87 176.7 28.36 174.7 28.36ZM178.75 18.64C178.75 15.58 177.4 14.05 174.7 14.05C173.2 14.05 172.07 14.41 171.31 15.13C170.57 15.85 170.12 17.02 169.96 18.64H178.75ZM184.68 12.22H186.69L186.99 14.59H187.17C187.47 13.81 187.92 13.16 188.52 12.64C189.12 12.12 189.91 11.86 190.89 11.86C191.43 11.86 191.9 11.94 192.3 12.1V14.65H191.19C190.07 14.65 189.14 14.98 188.4 15.64C187.68 16.28 187.32 17.29 187.32 18.67V28H184.68V12.22ZM194.67 6.31H197.28V9.16H194.67V6.31ZM194.67 12.22H197.31V28H194.67V12.22ZM207.321 28.36C204.921 28.36 203.161 27.7 202.041 26.38C200.921 25.04 200.361 22.95 200.361 20.11C200.361 17.29 200.921 15.21 202.041 13.87C203.181 12.53 204.941 11.86 207.321 11.86C209.481 11.86 211.061 12.38 212.061 13.42C213.061 14.46 213.561 16.01 213.561 18.07H210.861C210.861 16.65 210.601 15.63 210.081 15.01C209.581 14.37 208.661 14.05 207.321 14.05C205.861 14.05 204.791 14.53 204.111 15.49C203.431 16.43 203.091 17.97 203.091 20.11V20.23C203.091 22.35 203.421 23.87 204.081 24.79C204.741 25.71 205.821 26.17 207.321 26.17C208.641 26.17 209.581 25.84 210.141 25.18C210.721 24.5 211.011 23.49 211.011 22.15H213.561C213.561 23.95 213.051 25.44 212.031 26.62C211.011 27.78 209.441 28.36 207.321 28.36ZM220.611 28.36C219.251 28.36 218.041 28.04 216.981 27.4C215.921 26.76 215.391 25.6 215.391 23.92C215.391 21.9 216.291 20.52 218.091 19.78C219.891 19.02 222.491 18.64 225.891 18.64V16.9C225.891 15.98 225.631 15.28 225.111 14.8C224.591 14.3 223.651 14.05 222.291 14.05C221.011 14.05 220.091 14.29 219.531 14.77C218.991 15.25 218.721 15.84 218.721 16.54V16.9H216.171C216.151 16.78 216.141 16.56 216.141 16.24C216.141 14.84 216.721 13.76 217.881 13C219.041 12.24 220.591 11.86 222.531 11.86C224.491 11.86 225.981 12.27 227.001 13.09C228.021 13.91 228.531 15.07 228.531 16.57V25.12C228.531 25.48 228.631 25.75 228.831 25.93C229.031 26.09 229.281 26.17 229.581 26.17H230.781V27.88C230.261 28.12 229.581 28.24 228.741 28.24C228.061 28.24 227.491 28.04 227.031 27.64C226.571 27.22 226.261 26.67 226.101 25.99H225.891C225.351 26.73 224.611 27.31 223.671 27.73C222.751 28.15 221.731 28.36 220.611 28.36ZM221.301 26.17C222.081 26.17 222.821 26.01 223.521 25.69C224.221 25.37 224.791 24.9 225.231 24.28C225.671 23.64 225.891 22.87 225.891 21.97V20.83C223.311 20.83 221.371 21.04 220.071 21.46C218.791 21.86 218.151 22.63 218.151 23.77C218.151 24.63 218.411 25.25 218.931 25.63C219.471 25.99 220.261 26.17 221.301 26.17ZM232.99 12.22H235L235.3 14.35H235.51C236.67 12.69 238.44 11.86 240.82 11.86C242.4 11.86 243.61 12.29 244.45 13.15C245.31 13.99 245.74 15.35 245.74 17.23V28H243.1V17.41C243.1 16.15 242.82 15.28 242.26 14.8C241.7 14.3 240.89 14.05 239.83 14.05C239.07 14.05 238.37 14.24 237.73 14.62C237.09 14.98 236.58 15.51 236.2 16.21C235.82 16.91 235.63 17.73 235.63 18.67V28H232.99V12.22ZM123.37 40.42H139.21V42.91H126.22V49.24H137.89V51.73H126.22V58.51H139.39V61H123.37V40.42ZM147.07 52.93L141.49 45.22H144.7L148.45 50.83H148.63L152.47 45.22H155.53L149.95 52.87L155.8 61H152.62L148.57 54.94H148.39L144.28 61H141.22L147.07 52.93ZM158.02 45.22H160L160.33 47.35H160.51C161.03 46.53 161.71 45.91 162.55 45.49C163.41 45.07 164.36 44.86 165.4 44.86C167.4 44.86 168.94 45.53 170.02 46.87C171.1 48.21 171.64 50.29 171.64 53.11C171.64 55.87 171.1 57.94 170.02 59.32C168.96 60.68 167.5 61.36 165.64 61.36C164.52 61.36 163.57 61.19 162.79 60.85C162.01 60.51 161.36 59.96 160.84 59.2H160.66V66.19H158.02V45.22ZM164.74 59.17C165.76 59.17 166.57 58.98 167.17 58.6C167.77 58.22 168.21 57.6 168.49 56.74C168.77 55.88 168.91 54.71 168.91 53.23V53.11C168.91 51.61 168.77 50.42 168.49 49.54C168.21 48.66 167.76 48.03 167.14 47.65C166.54 47.25 165.74 47.05 164.74 47.05C163.34 47.05 162.31 47.56 161.65 48.58C160.99 49.6 160.66 51.11 160.66 53.11V53.23C160.66 55.19 160.98 56.67 161.62 57.67C162.28 58.67 163.32 59.17 164.74 59.17ZM174.69 45.22H176.7L177 47.59H177.18C177.48 46.81 177.93 46.16 178.53 45.64C179.13 45.12 179.92 44.86 180.9 44.86C181.44 44.86 181.91 44.94 182.31 45.1V47.65H181.2C180.08 47.65 179.15 47.98 178.41 48.64C177.69 49.28 177.33 50.29 177.33 51.67V61H174.69V45.22ZM191.37 61.36C188.83 61.36 186.94 60.69 185.7 59.35C184.46 58.01 183.84 55.93 183.84 53.11C183.84 50.29 184.46 48.21 185.7 46.87C186.94 45.53 188.83 44.86 191.37 44.86C193.65 44.86 195.35 45.47 196.47 46.69C197.61 47.89 198.18 49.83 198.18 52.51V53.83H186.57C186.67 55.65 187.1 57 187.86 57.88C188.64 58.74 189.81 59.17 191.37 59.17C192.63 59.17 193.65 58.88 194.43 58.3C195.21 57.72 195.6 56.83 195.6 55.63H198.18C198.18 57.47 197.54 58.89 196.26 59.89C195 60.87 193.37 61.36 191.37 61.36ZM195.42 51.64C195.42 48.58 194.07 47.05 191.37 47.05C189.87 47.05 188.74 47.41 187.98 48.13C187.24 48.85 186.79 50.02 186.63 51.64H195.42ZM206.75 61.36C205.29 61.36 204.07 61.15 203.09 60.73C202.13 60.29 201.42 59.72 200.96 59.02C200.5 58.32 200.27 57.56 200.27 56.74C200.27 56.5 200.27 56.34 200.27 56.26C200.29 56.16 200.3 56.1 200.3 56.08H202.91V56.38C202.91 57.32 203.28 58.03 204.02 58.51C204.76 58.97 205.72 59.2 206.9 59.2C207.92 59.2 208.76 59 209.42 58.6C210.1 58.18 210.44 57.6 210.44 56.86C210.44 56.28 210.25 55.81 209.87 55.45C209.49 55.07 209.02 54.78 208.46 54.58C207.9 54.36 207.14 54.13 206.18 53.89C205.02 53.59 204.07 53.29 203.33 52.99C202.61 52.69 201.99 52.25 201.47 51.67C200.97 51.07 200.72 50.3 200.72 49.36C200.72 47.98 201.28 46.89 202.4 46.09C203.54 45.27 205.07 44.86 206.99 44.86C208.19 44.86 209.23 45.06 210.11 45.46C210.99 45.84 211.65 46.36 212.09 47.02C212.55 47.66 212.78 48.38 212.78 49.18L212.75 49.75H210.17V49.48C210.17 48.78 209.89 48.2 209.33 47.74C208.79 47.28 207.91 47.05 206.69 47.05C205.49 47.05 204.65 47.27 204.17 47.71C203.69 48.13 203.45 48.62 203.45 49.18C203.45 49.64 203.62 50.02 203.96 50.32C204.3 50.62 204.72 50.86 205.22 51.04C205.72 51.22 206.42 51.42 207.32 51.64C208.56 51.96 209.57 52.28 210.35 52.6C211.13 52.9 211.79 53.37 212.33 54.01C212.89 54.63 213.17 55.46 213.17 56.5C213.17 58.12 212.58 59.34 211.4 60.16C210.24 60.96 208.69 61.36 206.75 61.36ZM221.75 61.36C220.29 61.36 219.07 61.15 218.09 60.73C217.13 60.29 216.42 59.72 215.96 59.02C215.5 58.32 215.27 57.56 215.27 56.74C215.27 56.5 215.27 56.34 215.27 56.26C215.29 56.16 215.3 56.1 215.3 56.08H217.91V56.38C217.91 57.32 218.28 58.03 219.02 58.51C219.76 58.97 220.72 59.2 221.9 59.2C222.92 59.2 223.76 59 224.42 58.6C225.1 58.18 225.44 57.6 225.44 56.86C225.44 56.28 225.25 55.81 224.87 55.45C224.49 55.07 224.02 54.78 223.46 54.58C222.9 54.36 222.14 54.13 221.18 53.89C220.02 53.59 219.07 53.29 218.33 52.99C217.61 52.69 216.99 52.25 216.47 51.67C215.97 51.07 215.72 50.3 215.72 49.36C215.72 47.98 216.28 46.89 217.4 46.09C218.54 45.27 220.07 44.86 221.99 44.86C223.19 44.86 224.23 45.06 225.11 45.46C225.99 45.84 226.65 46.36 227.09 47.02C227.55 47.66 227.78 48.38 227.78 49.18L227.75 49.75H225.17V49.48C225.17 48.78 224.89 48.2 224.33 47.74C223.79 47.28 222.91 47.05 221.69 47.05C220.49 47.05 219.65 47.27 219.17 47.71C218.69 48.13 218.45 48.62 218.45 49.18C218.45 49.64 218.62 50.02 218.96 50.32C219.3 50.62 219.72 50.86 220.22 51.04C220.72 51.22 221.42 51.42 222.32 51.64C223.56 51.96 224.57 52.28 225.35 52.6C226.13 52.9 226.79 53.37 227.33 54.01C227.89 54.63 228.17 55.46 228.17 56.5C228.17 58.12 227.58 59.34 226.4 60.16C225.24 60.96 223.69 61.36 221.75 61.36ZM123.37 73.42H130.99C134.29 73.42 136.83 74.27 138.61 75.97C140.39 77.65 141.28 80.23 141.28 83.71C141.28 87.19 140.39 89.78 138.61 91.48C136.83 93.16 134.29 94 130.99 94H123.37V73.42ZM130.99 91.51C133.37 91.51 135.18 90.91 136.42 89.71C137.68 88.51 138.32 86.53 138.34 83.77V83.71C138.34 80.93 137.71 78.94 136.45 77.74C135.21 76.52 133.39 75.91 130.99 75.91H126.22V91.51H130.99ZM151.35 94.36C148.81 94.36 146.92 93.69 145.68 92.35C144.44 91.01 143.82 88.93 143.82 86.11C143.82 83.29 144.44 81.21 145.68 79.87C146.92 78.53 148.81 77.86 151.35 77.86C153.63 77.86 155.33 78.47 156.45 79.69C157.59 80.89 158.16 82.83 158.16 85.51V86.83H146.55C146.65 88.65 147.08 90 147.84 90.88C148.62 91.74 149.79 92.17 151.35 92.17C152.61 92.17 153.63 91.88 154.41 91.3C155.19 90.72 155.58 89.83 155.58 88.63H158.16C158.16 90.47 157.52 91.89 156.24 92.89C154.98 93.87 153.35 94.36 151.35 94.36ZM155.4 84.64C155.4 81.58 154.05 80.05 151.35 80.05C149.85 80.05 148.72 80.41 147.96 81.13C147.22 81.85 146.77 83.02 146.61 84.64H155.4ZM161.33 72.31H163.97V94H161.33V72.31ZM167.981 72.31H170.591V75.16H167.981V72.31ZM167.981 78.22H170.621V94H167.981V78.22ZM173.011 78.22H175.801L178.591 86.11C178.991 87.23 179.511 88.88 180.151 91.06H180.301C180.881 89 181.391 87.35 181.831 86.11L184.591 78.22H187.231L181.441 94H178.801L173.011 78.22ZM196.321 94.36C193.781 94.36 191.891 93.69 190.651 92.35C189.411 91.01 188.791 88.93 188.791 86.11C188.791 83.29 189.411 81.21 190.651 79.87C191.891 78.53 193.781 77.86 196.321 77.86C198.601 77.86 200.301 78.47 201.421 79.69C202.561 80.89 203.131 82.83 203.131 85.51V86.83H191.521C191.621 88.65 192.051 90 192.811 90.88C193.591 91.74 194.761 92.17 196.321 92.17C197.581 92.17 198.601 91.88 199.381 91.3C200.161 90.72 200.551 89.83 200.551 88.63H203.131C203.131 90.47 202.491 91.89 201.211 92.89C199.951 93.87 198.321 94.36 196.321 94.36ZM200.371 84.64C200.371 81.58 199.021 80.05 196.321 80.05C194.821 80.05 193.691 80.41 192.931 81.13C192.191 81.85 191.741 83.02 191.581 84.64H200.371ZM206.301 78.22H208.311L208.611 80.59H208.791C209.091 79.81 209.541 79.16 210.141 78.64C210.741 78.12 211.531 77.86 212.511 77.86C213.051 77.86 213.521 77.94 213.921 78.1V80.65H212.811C211.691 80.65 210.761 80.98 210.021 81.64C209.301 82.28 208.941 83.29 208.941 84.67V94H206.301V78.22Z" fill="black"/>
<defs>
<clipPath id="clip0">
<rect width="100" height="100" fill="white"/>
</clipPath>
</defs>
</svg>
